<svg width="54" height="72" viewBox="0 0 54 72" fill="none" xmlns="http://www.w3.org/2000/svg">
<path d="M52.7732 24.4605L46.0368 19.8488V18.9423C46.0368 9.20574 38.1156 1.28447 28.3791 1.28447H28.0546V1.05469C28.0546 0.472078 27.5823 0 26.9999 0C26.4174 0 25.9452 0.472078 25.9452 1.05469V1.28447H25.6208C19.8471 1.28447 14.4273 4.11652 11.1226 8.85994C10.7896 9.33778 10.9072 9.9952 11.3852 10.3282C11.8631 10.6609 12.5206 10.5438 12.8534 10.0657C15.7638 5.88797 20.5368 3.39384 25.6208 3.39384H28.379C36.9523 3.39384 43.9273 10.369 43.9273 18.9423V19.3494H37.0897C37.0861 19.3494 37.0825 19.35 37.0789 19.35H35.7272C35.1447 19.35 34.6725 19.8221 34.6725 20.4047C34.6725 20.9873 35.1447 21.4594 35.7272 21.4594H44.6553L51.3641 26.0522H46.5468H42.7653H11.2344H7.453H2.63575L9.34469 21.4594H31.5097C32.0922 21.4594 32.5644 20.9873 32.5644 20.4047C32.5644 19.8221 32.0922 19.35 31.5097 19.35H30.5265C30.5228 19.35 30.5193 19.3494 30.5156 19.3494H10.0724V18.9423C10.0724 17.0906 10.3943 15.2795 11.0292 13.5592C11.2309 13.0127 10.9513 12.4064 10.405 12.2046C9.85853 12.0026 9.25202 12.2826 9.05036 12.8288C8.32896 14.7836 7.96319 16.8404 7.96319 18.9423V19.8488L1.22571 24.4612C0.488411 24.9673 0.17102 25.8809 0.435817 26.7348C0.700614 27.5881 1.47883 28.1614 2.37236 28.1614H6.39846V28.9491C6.39846 29.6083 6.46568 30.2621 6.59632 30.9032C4.8461 31.7104 3.66035 33.491 3.66035 35.4781C3.66035 38.2548 5.91935 40.5139 8.69613 40.5139H12.2434C13.9916 43.7063 16.7185 46.2413 20.0249 47.7475V48.817L16.725 49.0094C16.2166 49.039 15.802 49.4276 15.7396 49.9328L15.6406 50.7319C15.3495 50.8359 15.0642 50.951 14.7851 51.0768C14.7579 51.0889 14.7311 51.1014 14.7041 51.1137C14.59 51.1661 14.4769 51.2204 14.365 51.2764C14.2989 51.3091 14.233 51.3423 14.1676 51.3764C14.1113 51.4059 14.0556 51.4364 13.9999 51.4668C12.1534 52.4663 10.6019 53.9519 9.5126 55.8018C9.4863 55.8465 9.46478 55.8931 9.44552 55.9405C8.461 57.6613 7.90441 59.6392 7.90441 61.7068V70.9453C7.90441 71.5279 8.37663 72 8.9591 72H11.3285H42.671H45.0404C45.6228 72 46.0951 71.5279 46.0951 70.9453V61.7071C46.0951 58.6281 44.9124 55.7459 42.7642 53.5556C42.7338 53.5247 42.704 53.4933 42.6734 53.4628C42.6379 53.4275 42.6046 53.3908 42.5688 53.3558C42.5446 53.3322 42.5194 53.3104 42.4937 53.2897C42.3263 53.1297 42.1559 52.9727 41.9785 52.8221C41.5347 52.4448 40.869 52.4992 40.492 52.9433C40.115 53.3873 40.1693 54.053 40.6132 54.4299C40.8635 54.6425 41.1015 54.867 41.3273 55.1021C41.3362 55.1112 41.3453 55.1202 41.3542 55.1295C41.4239 55.2026 41.4921 55.2772 41.5595 55.3524C41.5734 55.3679 41.587 55.3836 41.6008 55.3991C41.8898 55.7267 42.1563 56.0731 42.3978 56.4375C40.4695 61.2696 40.0746 65.7849 41.2186 69.8906H29.5993C31.681 67.6596 33.3896 65.0168 34.6341 62.0973L38.3081 65.2527C38.5037 65.4207 38.7485 65.5073 38.9955 65.5073C39.1656 65.5073 39.3369 65.4661 39.4936 65.3822C39.8775 65.1762 40.0954 64.7554 40.042 64.323L38.2603 49.9328C38.1977 49.4276 37.7833 49.0393 37.2749 49.0096L33.975 48.8173V47.7477C37.2821 46.241 40.0088 43.7057 41.7565 40.5141H45.3038C48.0806 40.5141 50.3396 38.2551 50.3396 35.4783C50.3396 33.4911 49.1539 31.7105 47.4037 30.9033C47.5344 30.2621 47.6016 29.6083 47.6016 28.9492V28.1616H51.6277C52.5212 28.1616 53.2996 27.5882 53.5644 26.7349C53.8289 25.8809 53.5115 24.9673 52.7732 24.4605ZM8.50783 28.1614H10.1797V28.1616V32.4394C10.1797 32.598 10.1828 32.7607 10.1875 32.9266C10.1886 32.964 10.1897 33.0013 10.191 33.0387C10.1928 33.0917 10.1938 33.1428 10.196 33.1972C10.1962 33.2024 10.1965 33.2076 10.1967 33.2128L10.2001 33.2785C10.2029 33.3319 10.2056 33.3852 10.2094 33.4389C10.2101 33.4552 10.2114 33.4721 10.2123 33.4887C10.2136 33.5098 10.2149 33.5309 10.2163 33.5521C10.2206 33.6315 10.2267 33.7098 10.233 33.7874C10.2243 33.7769 10.2152 33.7665 10.2066 33.7558C10.1657 33.7053 10.1263 33.6537 10.0868 33.6022C10.0546 33.5603 10.0218 33.5187 9.99058 33.4761C9.95177 33.4233 9.91465 33.3695 9.87724 33.3159C9.84715 33.2727 9.81663 33.2301 9.78752 33.1864C9.75082 33.1312 9.7158 33.075 9.68064 33.019C9.65308 32.9753 9.62482 32.932 9.59824 32.8875C9.5635 32.8298 9.5306 32.7707 9.49741 32.712C9.47252 32.6679 9.44679 32.6244 9.4226 32.5797C9.38941 32.5183 9.35833 32.4555 9.32697 32.3931C9.30518 32.3499 9.28239 32.3073 9.26144 32.2637C9.22924 32.1967 9.19929 32.1285 9.16905 32.0602C9.15105 32.0199 9.13193 31.9801 9.11477 31.9395C9.08158 31.8613 9.05107 31.7818 9.02041 31.7024C9.00818 31.6707 8.99482 31.6396 8.983 31.6077C8.94152 31.4956 8.90243 31.3824 8.86615 31.268C8.62835 30.5191 8.50783 29.739 8.50783 28.9491V28.1614ZM8.69613 38.4047C7.08246 38.4047 5.76972 37.0919 5.76972 35.4783C5.76972 34.4115 6.35725 33.4471 7.24811 32.9369C7.27005 32.9858 7.29368 33.0339 7.31646 33.0825C7.33404 33.1201 7.35133 33.158 7.36947 33.1954C7.42319 33.3065 7.47874 33.4166 7.53654 33.5254C7.5423 33.5363 7.5475 33.5472 7.55327 33.558C7.61725 33.6774 7.68405 33.795 7.75296 33.9114C7.77265 33.9449 7.79332 33.9777 7.81343 34.0109C7.86405 34.0942 7.9158 34.1771 7.96896 34.2588C7.99371 34.2969 8.0186 34.3347 8.04377 34.3724C8.09791 34.4533 8.15346 34.5331 8.20985 34.6123C8.23263 34.6442 8.25485 34.6764 8.27791 34.7081C8.35708 34.8162 8.43808 34.9231 8.52175 35.0279C8.53329 35.0423 8.54552 35.0563 8.55719 35.0708C8.63018 35.1612 8.70471 35.2502 8.78079 35.3379C8.80976 35.3713 8.83929 35.404 8.86868 35.4369C8.93069 35.5065 8.99369 35.5752 9.05782 35.643C9.0896 35.6766 9.12124 35.71 9.15344 35.7432C9.22474 35.8165 9.2973 35.8885 9.37099 35.9596C9.39504 35.9828 9.41838 36.0066 9.44257 36.0295C9.53974 36.1215 9.63902 36.2116 9.74027 36.2998C9.76629 36.3225 9.79314 36.3442 9.81944 36.3666C9.89664 36.4324 9.97469 36.4974 10.054 36.561C10.0908 36.5905 10.1281 36.6195 10.1654 36.6484C10.2388 36.7055 10.3132 36.7615 10.3884 36.8165C10.4253 36.8435 10.4618 36.8706 10.4991 36.8972C10.594 36.9647 10.6903 37.0306 10.7879 37.0949C10.8045 37.1059 10.8207 37.1174 10.8374 37.1284C10.8393 37.1296 10.8411 37.1309 10.8429 37.132C10.8429 37.1322 10.8431 37.1323 10.8431 37.1326C10.8987 37.3241 10.9589 37.5144 11.0214 37.7038C11.0356 37.7467 11.0496 37.7896 11.0641 37.8323C11.1273 38.0188 11.1928 38.2043 11.2624 38.3882C11.2645 38.3937 11.2662 38.3992 11.2683 38.4047H8.69613ZM10.5791 69.8906H10.0141V61.7071H10.0139C10.0139 60.8487 10.1326 60.0097 10.353 59.2068C11.5691 63.0855 11.6417 66.6055 10.5791 69.8906ZM43.6513 59.1926C43.8705 60.0015 43.986 60.8445 43.986 61.7071V69.8906H43.4209C42.3568 66.6014 42.4308 63.0768 43.6513 59.1926ZM17.651 51.6649C17.6517 51.6592 17.6525 51.6534 17.6531 51.6475L17.7254 51.0643L20.0249 50.9302V51.0581C20.0249 51.2487 20.0765 51.4357 20.1744 51.5994L23.9523 57.9185L22.8568 57.2662C22.4674 57.0344 21.9737 57.0772 21.6301 57.3722L16.3866 61.8754L17.651 51.6649ZM22.1343 50.7669V49.8122V48.545C22.1441 48.548 22.1541 48.5505 22.1639 48.5535C22.3346 48.6046 22.5062 48.6529 22.6783 48.6986C22.719 48.7094 22.7598 48.7197 22.8004 48.7301C22.9535 48.7696 23.1072 48.807 23.2614 48.842C23.2892 48.8483 23.3169 48.8552 23.3448 48.8614C23.5197 48.9002 23.6953 48.9357 23.8714 48.9689C23.9134 48.9767 23.9555 48.9842 23.9975 48.9918C24.1588 49.0209 24.3204 49.0479 24.4827 49.0722C24.5038 49.0755 24.5249 49.0791 24.546 49.0822C24.7246 49.1082 24.9037 49.1307 25.0834 49.1511C25.1269 49.156 25.1703 49.1605 25.2138 49.1652C25.3849 49.1832 25.5566 49.1992 25.7288 49.212C25.7409 49.213 25.753 49.2141 25.7652 49.2151C25.9472 49.2282 26.1297 49.2376 26.3126 49.2449C26.3571 49.2467 26.4015 49.2483 26.4461 49.2497C26.6303 49.2556 26.8148 49.2597 26.9999 49.2597C27.1849 49.2597 27.3694 49.2556 27.5537 49.2497C27.5981 49.2483 27.6427 49.2467 27.6871 49.2449C27.8701 49.2376 28.0526 49.2283 28.2346 49.2151C28.2467 49.2143 28.2588 49.213 28.271 49.212C28.4431 49.1992 28.6148 49.1832 28.786 49.1652C28.8294 49.1605 28.8727 49.156 28.916 49.1511C29.0959 49.1307 29.2753 49.1082 29.4541 49.0822C29.4747 49.0793 29.4953 49.0756 29.5159 49.0725C29.6788 49.048 29.8409 49.0209 30.0028 48.9918C30.0444 48.9843 30.0862 48.9769 30.1277 48.969C30.3041 48.9358 30.4802 48.9002 30.6554 48.8613C30.6826 48.8552 30.7094 48.8486 30.7366 48.8424C30.8917 48.8071 31.0462 48.7696 31.2003 48.7298C31.2404 48.7195 31.2806 48.7094 31.3206 48.6987C31.493 48.6529 31.6647 48.6046 31.8357 48.5533C31.8455 48.5504 31.8555 48.548 31.8654 48.545V49.8122V50.7669L26.9999 58.9056L22.1343 50.7669ZM12.7813 69.8908V69.8906C13.9244 65.7882 13.531 61.2768 11.6066 56.449C12.4047 55.2434 13.4698 54.2191 14.7313 53.4749C14.7551 53.461 14.779 53.4472 14.8029 53.4336C14.8787 53.3897 14.9555 53.3471 15.0327 53.3052C15.105 53.2664 15.1778 53.2284 15.2514 53.1914C15.2816 53.1761 15.3117 53.1605 15.3421 53.1456L13.9582 64.3231C13.9047 64.7556 14.1226 65.1763 14.5065 65.3822C14.6631 65.4663 14.8344 65.5075 15.0046 65.5075C15.2515 65.5075 15.4963 65.4209 15.6919 65.2528L19.3659 62.0975C20.6104 65.017 22.319 67.6596 24.4007 69.8908H12.7813ZM26.9999 69.516C24.4478 67.1182 22.4082 64.0808 21.0492 60.6516L22.4289 59.4665L26.4602 61.8671C26.463 61.8688 26.4661 61.8697 26.4689 61.8713C26.4844 61.8803 26.5005 61.8879 26.5164 61.8962C26.5324 61.9045 26.5486 61.9124 26.5651 61.9199C26.5807 61.9269 26.5959 61.9346 26.6118 61.941C26.6247 61.9462 26.6381 61.9495 26.6511 61.9542C26.6575 61.9564 26.6638 61.9584 26.6701 61.9605C26.6845 61.9653 26.6985 61.9708 26.7131 61.975C26.7299 61.9798 26.7469 61.9833 26.7639 61.9872C26.7819 61.9914 26.7999 61.9948 26.8182 61.9979C26.8342 62.0007 26.8498 62.0048 26.8661 62.0069C26.8732 62.0077 26.8802 62.0075 26.8872 62.0083C26.8998 62.0096 26.9124 62.0099 26.9249 62.0108C26.9424 62.0121 26.9598 62.0139 26.9772 62.0142C26.9848 62.0144 26.9923 62.0158 27 62.0158C27.0078 62.0158 27.0152 62.0145 27.0228 62.0142C27.0404 62.0138 27.0577 62.012 27.0751 62.0108C27.0876 62.0099 27.1003 62.0097 27.1127 62.0083C27.1197 62.0076 27.1269 62.0079 27.1338 62.0069C27.1499 62.0048 27.1657 62.0007 27.1816 61.9979C27.1997 61.9947 27.2177 61.9913 27.2358 61.9872C27.2529 61.9833 27.2699 61.9798 27.2866 61.975C27.3012 61.9709 27.3153 61.9653 27.3298 61.9605C27.336 61.9584 27.3423 61.9564 27.3485 61.9542C27.3616 61.9495 27.3749 61.946 27.3879 61.941C27.4038 61.9346 27.4189 61.927 27.4346 61.92C27.451 61.9125 27.4673 61.9047 27.4835 61.8962C27.4994 61.8881 27.5154 61.8805 27.5309 61.8715C27.5337 61.8698 27.5368 61.869 27.5396 61.8673L31.5709 59.4667L32.9506 60.6517C31.5916 64.0808 29.5519 67.1182 26.9999 69.516ZM36.2748 51.0642L37.6133 61.8754L32.3696 57.3722C32.1736 57.204 31.9288 57.1177 31.6824 57.1177C31.4968 57.1177 31.3102 57.1666 31.143 57.2662L30.0475 57.9185L33.8254 51.5994C33.9231 51.4358 33.9749 51.2488 33.9749 51.0581V50.9302L36.2748 51.0642ZM41.7105 32.4394C41.7105 32.5818 41.7078 32.7241 41.7038 32.8662C41.7029 32.8982 41.7018 32.9311 41.7007 32.9638C41.6958 33.1027 41.6896 33.2415 41.6808 33.38C41.68 33.389 41.6796 33.3982 41.679 33.4072C41.6699 33.5486 41.6585 33.6898 41.6453 33.8307C41.6439 33.8455 41.6429 33.8593 41.6415 33.8743C41.6268 34.0252 41.6101 34.1757 41.591 34.3259L41.5883 34.3455C41.5499 34.6431 41.5023 34.9388 41.4459 35.2327C41.4172 35.3812 41.3862 35.5299 41.3531 35.6778C41.3512 35.6857 41.3498 35.6937 41.348 35.7016C41.3113 35.8639 41.272 36.0253 41.2304 36.1848C41.1986 36.3059 41.1652 36.4265 41.1303 36.5467C40.8856 37.389 40.5654 38.2087 40.1759 38.989C38.5718 42.2107 35.8543 44.7279 32.5233 46.0773C30.7705 46.7893 28.9121 47.1502 26.9999 47.1502C26.7608 47.1502 26.5226 47.1445 26.2854 47.1333C26.1568 47.1272 26.0286 47.1191 25.9006 47.1097C24.7295 47.0237 23.5828 46.8001 22.4726 46.4406C22.3906 46.414 22.3091 46.3859 22.2275 46.3579C22.1978 46.3478 22.168 46.3382 22.1383 46.3278C21.916 46.2497 21.6952 46.1663 21.4761 46.0773C21.4758 46.0772 21.4756 46.0772 21.4753 46.077C18.1451 44.7279 15.4277 42.2107 13.823 38.9881C13.7675 38.8768 13.7132 38.7645 13.6605 38.6516C13.2912 37.861 12.9918 37.033 12.7691 36.1851C12.7274 36.0255 12.6881 35.8639 12.6513 35.7013C12.6499 35.695 12.6488 35.6887 12.6474 35.6825C12.6139 35.5333 12.5827 35.3834 12.5538 35.2333C12.4975 34.9398 12.4498 34.6442 12.4114 34.347L12.4085 34.325C12.3894 34.175 12.3725 34.0244 12.358 33.8735C12.3567 33.8605 12.3558 33.8472 12.3545 33.8342C12.3411 33.6922 12.3297 33.5499 12.3205 33.4073C12.3199 33.3982 12.3195 33.389 12.3186 33.38C12.3099 33.2415 12.3036 33.1027 12.2988 32.9639C12.2977 32.9311 12.2966 32.8982 12.2957 32.8662C12.2916 32.724 12.289 32.5818 12.289 32.4394V28.1616H41.7105V32.4394ZM43.7832 33.5521C43.7846 33.5312 43.7857 33.5101 43.7871 33.4891C43.7881 33.4725 43.7892 33.4567 43.7901 33.4389C43.7937 33.3863 43.7966 33.3343 43.7992 33.282L43.8027 33.2137C43.803 33.2082 43.8033 33.2025 43.8036 33.1971C43.8058 33.1426 43.8068 33.0916 43.8086 33.0386C43.8099 33.0012 43.8112 32.9639 43.8122 32.9265C43.8168 32.7606 43.8199 32.5979 43.8199 32.4392V28.1614H45.4919V28.9491H45.4921C45.4921 29.739 45.3715 30.5191 45.1338 31.2681C45.0975 31.3824 45.0585 31.4954 45.017 31.6073C45.0045 31.641 44.9903 31.674 44.9774 31.7076C44.9474 31.7853 44.9175 31.8631 44.885 31.9395C44.8681 31.9792 44.8494 32.0182 44.8318 32.0577C44.8012 32.1266 44.7708 32.1958 44.7382 32.2637C44.7176 32.3063 44.6954 32.348 44.6742 32.3902C44.6421 32.4537 44.6106 32.5174 44.5769 32.5799C44.5531 32.6239 44.5277 32.6669 44.5031 32.7104C44.4696 32.7696 44.4365 32.829 44.4015 32.8873C44.3748 32.9317 44.3465 32.9752 44.3188 33.019C44.2837 33.0749 44.2488 33.1311 44.2122 33.186C44.1828 33.2301 44.1519 33.2733 44.1215 33.3169C44.0845 33.3699 44.0478 33.423 44.0096 33.4752C43.9775 33.5188 43.9441 33.5616 43.911 33.6045C43.8722 33.6548 43.8337 33.7054 43.7936 33.7548C43.7847 33.7657 43.7755 33.7763 43.7665 33.7871C43.7729 33.7092 43.7788 33.6312 43.7832 33.5521ZM48.23 35.4781C48.23 37.092 46.9173 38.4047 45.3036 38.4047H42.7316C42.7337 38.3991 42.7355 38.3932 42.7378 38.3875C42.8071 38.2042 42.8725 38.0192 42.9354 37.8333C42.9501 37.7899 42.9645 37.7463 42.9788 37.7027C43.041 37.5141 43.101 37.3247 43.1564 37.1339C43.1566 37.1333 43.1568 37.1326 43.157 37.132C43.1588 37.1308 43.1606 37.1295 43.1625 37.1284C43.1792 37.1175 43.1952 37.1059 43.212 37.0949C43.3096 37.0306 43.4059 36.9647 43.5008 36.8972C43.5381 36.8708 43.5746 36.8435 43.6115 36.8165C43.6867 36.7613 43.7611 36.7054 43.8345 36.6484C43.8718 36.6195 43.909 36.5905 43.9459 36.561C44.0252 36.4974 44.1033 36.4324 44.1805 36.3666C44.2068 36.3442 44.2336 36.3225 44.2596 36.2998C44.3607 36.2116 44.4599 36.1216 44.5572 36.0297C44.5817 36.0066 44.6051 35.9826 44.6293 35.9592C44.7027 35.8883 44.7752 35.8165 44.8462 35.7435C44.8785 35.7102 44.9103 35.6766 44.9422 35.6428C45.0061 35.5753 45.0688 35.5068 45.1307 35.4375C45.1603 35.4043 45.1901 35.3713 45.2192 35.3377C45.2949 35.2505 45.369 35.1619 45.4416 35.072C45.4537 35.0571 45.4662 35.0426 45.4781 35.0276C45.5617 34.923 45.6425 34.8162 45.7216 34.7082C45.7449 34.6763 45.7674 34.6438 45.7903 34.6115C45.8466 34.5327 45.9017 34.4534 45.9556 34.373C45.9812 34.3349 46.0063 34.2965 46.0314 34.2581C46.0841 34.1769 46.1353 34.095 46.1855 34.0121C46.206 33.9782 46.2271 33.9448 46.2472 33.9107C46.3157 33.7947 46.3824 33.6776 46.4462 33.5586C46.4528 33.5464 46.4587 33.5339 46.4653 33.5215C46.5223 33.4142 46.577 33.3058 46.6299 33.1962C46.6484 33.158 46.6661 33.1193 46.6841 33.0806C46.7066 33.0327 46.73 32.9851 46.7516 32.9368C47.6425 33.447 48.23 34.4114 48.23 35.4781Z" fill="white"/>
</svg>
